<svg width="30" height="28" viewBox="0 0 30 28" fill="none" xmlns="http://www.w3.org/2000/svg">
<path d="M17 2C17 0.89543 16.1046 0 15 0C13.8954 0 13 0.89543 13 2L17 2ZM13.5858 27.4142C14.3668 28.1953 15.6332 28.1953 16.4142 27.4142L29.1421 14.6863C29.9232 13.9052 29.9232 12.6389 29.1421 11.8579C28.3611 11.0768 27.0948 11.0768 26.3137 11.8579L15 23.1716L3.68629 11.8579C2.90524 11.0768 1.63891 11.0768 0.857864 11.8579C0.0768156 12.6389 0.0768156 13.9052 0.857864 14.6863L13.5858 27.4142ZM13 2L13 26H17V2L13 2Z" fill="white"/>
</svg>
