<svg width="128" height="60" viewBox="0 0 128 60" fill="none" xmlns="http://www.w3.org/2000/svg">
<path d="M124 33.9094C126.209 33.9094 128 32.1186 128 29.9094C128 27.7003 126.209 25.9094 124 25.9094V33.9094ZM1.17156 27.081C-0.390533 28.6431 -0.390533 31.1758 1.17156 32.7379L26.6274 58.1937C28.1895 59.7558 30.7222 59.7558 32.2843 58.1937C33.8464 56.6316 33.8464 54.0989 32.2843 52.5368L9.65685 29.9094L32.2843 7.28201C33.8464 5.71991 33.8464 3.18725 32.2843 1.62515C30.7222 0.063055 28.1895 0.063055 26.6274 1.62515L1.17156 27.081ZM124 25.9094L3.99999 25.9094V33.9094L124 33.9094V25.9094Z" fill="black"/>
</svg>
